<svg xmlns="http://www.w3.org/2000/svg" xmlns:xlink="http://www.w3.org/1999/xlink" viewBox="0 0 1568.186 250.457">
  <defs>
    <style>
      .cls-1 {
        fill: url(#linear-gradient);
      }

      .cls-2 {
        fill: #03a8ff;
      }
    </style>
    <linearGradient id="linear-gradient" x1="0.978" y1="0.587" x2="-0.026" y2="0.596" gradientUnits="objectBoundingBox">
      <stop offset="0" stop-color="#03a8ff"/>
      <stop offset="0.3" stop-color="#4fdb5a"/>
      <stop offset="0.448" stop-color="#d6c45e"/>
      <stop offset="1" stop-color="#ed9215"/>
      <stop offset="1" stop-color="#a6c400"/>
    </linearGradient>
  </defs>
  <g id="Indorimade" transform="translate(-4684.123 17754.156)">
    <path id="Path_2880" data-name="Path 2880" class="cls-1" d="M25.123.259l1.036-83.4-1.036-97.9H55.685l-1.036,80.29L55.685.259ZM114.935,0V-181.041h39.627L219.571-34.965h1.295L217.24-181.041h28.749V0H206.362l-64.75-145.817h-1.295L143.684,0ZM304.721-181.041q38.85-3.367,57.239-3.367t30.821,5.051q12.432,5.051,19.943,13.209a59.432,59.432,0,0,1,11.914,20.331q7.77,20.461,7.77,53.1,0,96.089-71.743,96.089Q349.01,3.367,304.721,0ZM360.147-22.792q19.425,0,26.159-6.216,13.209-12.173,13.209-63.326t-12.432-60.994q-5.957-4.921-22.792-4.921L334.765-156.7l.259,131.831A173.157,173.157,0,0,0,360.147-22.792Zm185.9,26.159A95.326,95.326,0,0,1,523.515.907,59.391,59.391,0,0,1,504.09-7.9,52.563,52.563,0,0,1,488.55-24.6q-13.986-22.533-13.986-66.3,0-55.167,21.238-75.369a61.581,61.581,0,0,1,22.4-13.986q12.043-4.144,27.842-4.144t27.843,4.144a61.581,61.581,0,0,1,22.4,13.986q21.238,20.2,21.238,75.369,0,62.937-29.526,83.139Q571.43,3.367,546.048,3.367ZM520.407-30.3a30.2,30.2,0,0,0,11.008,5.309q5.828,1.425,17.742,1.424t19.684-4.4q17.094-9.583,17.094-62.16,0-21.756-2.072-34.965t-7.381-20.461q-5.31-7.252-12.173-9.583t-18.26-2.331q-11.4,0-18.13,2.331t-12.044,9.583q-5.31,7.252-7.382,20.461a216.679,216.679,0,0,0-2.072,32.763,253.864,253.864,0,0,0,1.554,31.469,85.6,85.6,0,0,0,4.4,19.3A24.79,24.79,0,0,0,520.407-30.3ZM730.913-184.408q62.419,0,62.419,58.275,0,42.994-37.814,53.613v1.295L797.735,0H762.252L727.028-68.376l-28.49-1.036V0H667.976l1.295-84.952-.777-95.83A504.311,504.311,0,0,1,730.913-184.408Zm-32.634,89.1a321.846,321.846,0,0,0,35.871,2.331q15.411,0,21.5-7.64t6.086-27.454q0-19.813-6.216-26.807-5.439-5.7-22.4-5.7a263.37,263.37,0,0,0-34.576,2.331Z" transform="translate(4659 -17532.938)"/>
    <path id="Path_2882" data-name="Path 2882" d="M176.264,145.415,102.9,72.049c7.256-18.543,3.225-40.311-12.093-55.629C74.68.295,50.493-2.93,31.144,5.938L65.811,40.606,41.625,64.793,6.151,30.125C-3.524,49.475.507,73.661,16.632,89.786,31.95,105.1,53.718,109.135,72.261,101.879l73.366,73.366a7.793,7.793,0,0,0,11.287,0L175.458,156.7c4.031-3.225,4.031-8.868.806-11.287Z" transform="translate(5523.083 -17755.609) rotate(45)"/>
    <path id="Path_2879" data-name="Path 2879" d="M937.473,0l5.957-181.041h40.922L1018.8-71.225h1.554l33.929-109.816h41.181L1101.679,0h-30.044l-.518-151.256h-1.3L1035.893-44.548h-32.116L969.071-151.256h-1.554L967.776,0Zm196.52,0,51.541-181.041h36.778L1273.594,0h-31.339l-11.4-44.548h-53.872L1165.332,0Zm48.692-69.93h42.476L1204.7-154.364h-1.554Zm126.331-111.111q38.85-3.367,57.239-3.367t30.821,5.051q12.432,5.051,19.943,13.209a59.433,59.433,0,0,1,11.914,20.331q7.77,20.461,7.77,53.1,0,96.089-71.743,96.089-11.655,0-55.944-3.367Zm55.426,158.249q19.425,0,26.159-6.216,13.209-12.173,13.209-63.326t-12.432-60.994q-5.957-4.921-22.792-4.921L1339.06-156.7l.259,131.831A173.156,173.156,0,0,0,1364.442-22.792ZM1487.406,0V-181.041h97.9v26.418l-67.6-.777-1.3,50.764h62.419V-79h-62.419l1.3,53.1,67.6-.518V0Z" transform="translate(4667 -17532.592)"/>
    <g id="icon-action-settings_24px" transform="translate(5568.556 -17923.26)">
      <path id="Path_2883" data-name="Path 2883" class="cls-2" d="M28.941,49.343H19.072a1.2,1.2,0,0,1-1.209-1.034l-.94-6.54a18.092,18.092,0,0,1-4.167-2.418L6.613,41.819a1.248,1.248,0,0,1-.429.074,1.219,1.219,0,0,1-1.076-.617L.174,32.737a1.234,1.234,0,0,1,.3-1.579L5.676,27.09A19.112,19.112,0,0,1,5.5,24.672a19.1,19.1,0,0,1,.173-2.418L.467,18.183a1.211,1.211,0,0,1-.3-1.579L5.106,8.065a1.206,1.206,0,0,1,1.063-.624,1.234,1.234,0,0,1,.449.086l6.143,2.467a18.837,18.837,0,0,1,4.167-2.418l.935-6.54A1.2,1.2,0,0,1,19.07,0h9.869a1.2,1.2,0,0,1,1.209,1.036l.938,6.538a18.2,18.2,0,0,1,4.17,2.418L41.4,7.525a1.248,1.248,0,0,1,.429-.074,1.214,1.214,0,0,1,1.073.617l4.934,8.539a1.234,1.234,0,0,1-.3,1.579L42.33,22.256a19.645,19.645,0,0,1,.173,2.418,19.552,19.552,0,0,1-.173,2.418l5.206,4.071a1.234,1.234,0,0,1,.3,1.579L42.9,41.281a1.2,1.2,0,0,1-1.053.627,1.234,1.234,0,0,1-.449-.086l-6.143-2.467a18.783,18.783,0,0,1-4.17,2.418l-.938,6.54A1.2,1.2,0,0,1,28.941,49.343ZM24.007,16.037a8.635,8.635,0,1,0,8.635,8.635,8.635,8.635,0,0,0-8.635-8.635Z" transform="translate(-68.729 178)"/>
    </g>
  </g>
</svg>
